<svg width="25" height="25" viewBox="0 0 25 25" fill="none" color="black" xmlns="http://www.w3.org/2000/svg">
<path d="M9.06787 20.2979H6.06787C5.00701 20.2979 3.98959 19.8764 3.23944 19.1263C2.4893 18.3761 2.06787 17.3587 2.06787 16.2979V7.29785C2.06787 6.23699 2.4893 5.21957 3.23944 4.46942C3.98959 3.71928 5.00701 3.29785 6.06787 3.29785H17.0679C18.1287 3.29785 19.1462 3.71928 19.8963 4.46942C20.6464 5.21957 21.0679 6.23699 21.0679 7.29785V10.2979M8.06787 2.29785V4.29785M15.0679 2.29785V4.29785M2.06787 8.29785H21.0679M18.5679 15.9409L17.0679 17.4409" stroke="currentColor" stroke-width="1.27673" stroke-linecap="round" stroke-linejoin="round"/>
<path d="M17.0676 22.2976C19.8291 22.2976 22.0676 20.059 22.0676 17.2976C22.0676 14.5362 19.8291 12.2976 17.0676 12.2976C14.3062 12.2976 12.0676 14.5362 12.0676 17.2976C12.0676 20.059 14.3062 22.2976 17.0676 22.2976Z" stroke="currentColor" stroke-width="1.27673" stroke-linecap="round" stroke-linejoin="round"/>
</svg>
