<svg width="24" height="22" viewBox="0 0 24 22" fill="none" xmlns="http://www.w3.org/2000/svg">
    <path d="M6.44225 5.52834L7.84103 4.12956C8.2706 3.69998 8.96708 3.69998 9.39666 4.12956L10.7954 5.52834M10.7954 16.4113L9.39666 17.8101C8.96708 18.2397 8.2706 18.2397 7.84103 17.8101L6.44224 16.4113M11.0677 16.1393L15.4593 11.7477C15.8889 11.3181 15.8889 10.6216 15.4593 10.192L11.0677 5.80043M6.16941 5.80044L1.77781 10.192C1.34823 10.6216 1.34823 11.3181 1.77781 11.7477L6.16941 16.1393M13.2045 5.52834L14.6033 4.12956C15.0329 3.69998 15.7294 3.69998 16.159 4.12956L17.5577 5.52834M17.5577 16.4113L16.159 17.81C15.7294 18.2396 15.0329 18.2396 14.6033 17.81L13.2045 16.4113M17.8306 16.1393L22.2222 11.7477C22.6518 11.3181 22.6518 10.6216 22.2222 10.192L17.8306 5.80043"
          stroke="#000000"/>
</svg>
