<svg width="22" height="22" viewBox="0 0 22 22" fill="none" xmlns="http://www.w3.org/2000/svg">
<path d="M14.2148 21.0728L15.1677 20.7697L14.5615 18.8638L13.6086 19.1669L14.2148 21.0728ZM19.2192 13.469L18.9308 14.4266L20.8459 15.0033L21.1342 14.0457L19.2192 13.469ZM1.56118 8.32071C1.00889 8.32071 0.561178 8.76843 0.561178 9.32071C0.561178 9.873 1.00889 10.3207 1.56118 10.3207V8.32071ZM6.63118 9.32071V10.3207H6.63163L6.63118 9.32071ZM8.39951 10.0524L9.10662 9.34527L9.10639 9.34504L8.39951 10.0524ZM9.33368 10.9865L8.62657 11.6937L8.62668 11.6938L9.33368 10.9865ZM9.43451 14.4157L10.1818 15.0802L10.1818 15.0802L9.43451 14.4157ZM8.29868 15.6932L7.55135 15.0288L7.55134 15.0288L8.29868 15.6932ZM7.66701 17.354L6.66701 17.3539V17.354H7.66701ZM6.66701 19.9749C6.66701 20.5272 7.11473 20.9749 7.66701 20.9749C8.2193 20.9749 8.66701 20.5272 8.66701 19.9749H6.66701ZM17.884 5.32068C18.4363 5.32068 18.884 4.87297 18.884 4.32068C18.884 3.7684 18.4363 3.32068 17.884 3.32068V5.32068ZM13.0507 4.32068V5.32068V4.32068ZM13.4107 8.07068V9.07068L13.4122 9.07068L13.4107 8.07068ZM15.494 9.18318L16.3261 8.62859L16.3259 8.62818L15.494 9.18318ZM15.606 11.1544C15.9123 11.614 16.5332 11.7383 16.9928 11.432C17.4523 11.1257 17.5766 10.5048 17.2703 10.0453L15.606 11.1544ZM18.3741 16.947C17.9836 16.5565 17.3504 16.5565 16.9599 16.947C16.5694 17.3375 16.5694 17.9707 16.9599 18.3612L18.3741 16.947ZM19.1292 20.5305L19.8363 21.2376L21.2505 19.8234L20.5434 19.1163L19.1292 20.5305ZM13.6086 19.1669C9.85233 20.3617 5.76544 18.8412 3.70339 15.482L1.9989 16.5283C4.54199 20.6712 9.58227 22.5463 14.2148 21.0728L13.6086 19.1669ZM3.70339 15.482C1.64134 12.1227 2.13551 7.79025 4.90109 4.98163L3.476 3.57838C0.0652599 7.0422 -0.544192 12.3853 1.9989 16.5283L3.70339 15.482ZM4.90109 4.98163C7.66667 2.17301 11.991 1.612 15.3817 3.62193L16.4015 1.90149C12.2198 -0.577328 6.88674 0.114558 3.476 3.57838L4.90109 4.98163ZM15.3817 3.62193C18.7724 5.63187 20.3557 9.69479 19.2192 13.469L21.1342 14.0457C22.5359 9.39103 20.5832 4.3803 16.4015 1.90149L15.3817 3.62193ZM1.56118 10.3207H6.63118V8.32071H1.56118V10.3207ZM6.63163 10.3207C7.02952 10.3205 7.41119 10.4784 7.69263 10.7597L9.10639 9.34504C8.44969 8.68876 7.55914 8.32029 6.63072 8.32071L6.63163 10.3207ZM7.6924 10.7595L8.62657 11.6937L10.0408 10.2794L9.10662 9.34527L7.6924 10.7595ZM8.62668 11.6938C9.18847 12.2554 9.215 13.1576 8.68718 13.7513L10.1818 15.0802C11.4134 13.695 11.3515 11.5898 10.0407 10.2793L8.62668 11.6938ZM8.68718 13.7513L7.55135 15.0288L9.04601 16.3577L10.1818 15.0802L8.68718 13.7513ZM7.55134 15.0288C6.98178 15.6694 6.66711 16.4967 6.66701 17.3539L8.66701 17.3542C8.66705 16.9868 8.80191 16.6322 9.04601 16.3577L7.55134 15.0288ZM6.66701 17.354V19.9749H8.66701V17.354H6.66701ZM17.884 3.32068H13.0507V5.32068H17.884V3.32068ZM13.0507 3.32068C11.4629 3.32068 10.1757 4.60786 10.1757 6.19568H12.1757C12.1757 5.71243 12.5674 5.32068 13.0507 5.32068V3.32068ZM10.1757 6.19568C10.1757 7.7835 11.4629 9.07068 13.0507 9.07068V7.07068C12.5674 7.07068 12.1757 6.67893 12.1757 6.19568H10.1757ZM13.0507 9.07068H13.4107V7.07068H13.0507V9.07068ZM13.4122 9.07068C13.9143 9.06994 14.3835 9.32048 14.6622 9.73818L16.3259 8.62818C15.6756 7.65356 14.5808 7.06894 13.4092 7.07068L13.4122 9.07068ZM14.6619 9.73777L15.606 11.1544L17.2703 10.0453L16.3261 8.62859L14.6619 9.73777ZM15.7329 19.4557C17.796 19.4557 19.4684 17.7833 19.4684 15.7202H17.4684C17.4684 16.6787 16.6914 17.4557 15.7329 17.4557V19.4557ZM19.4684 15.7202C19.4684 13.6571 17.7959 11.9847 15.7329 11.9847V13.9847C16.6914 13.9847 17.4684 14.7617 17.4684 15.7202H19.4684ZM15.7329 11.9847C13.6698 11.9847 11.9974 13.6571 11.9974 15.7202H13.9974C13.9974 14.7617 14.7744 13.9847 15.7329 13.9847V11.9847ZM11.9974 15.7202C11.9974 17.7833 13.6698 19.4557 15.7329 19.4557V17.4557C14.7744 17.4557 13.9974 16.6787 13.9974 15.7202H11.9974ZM16.9599 18.3612L19.1292 20.5305L20.5434 19.1163L18.3741 16.947L16.9599 18.3612Z" fill="#000"/>
</svg>
