<svg width="45" height="34" viewBox="0 0 45 34" fill="none" xmlns="http://www.w3.org/2000/svg">
<path d="M1.66663 1.17717L1.66238 0.177182C1.11176 0.179518 0.666626 0.626544 0.666626 1.17717H1.66663ZM22.4246 16.7777L21.8238 17.5771L22.4245 18.0285L23.0253 17.5772L22.4246 16.7777ZM43.4241 1H44.4241C44.4241 0.734048 44.3181 0.479052 44.1297 0.291395C43.9412 0.103738 43.6858 -0.00111938 43.4198 9.0003e-06L43.4241 1ZM1.66663 32.3782H0.666626V33.3782H1.66663V32.3782ZM43.4241 32.3782V33.3782H44.4241V32.3782H43.4241ZM1.06584 1.97658L21.8238 17.5771L23.0254 15.9783L2.26742 0.377765L1.06584 1.97658ZM23.0253 17.5772L44.0247 1.79949L42.8234 0.200514L21.8239 15.9782L23.0253 17.5772ZM43.4198 9.0003e-06L1.66238 0.177182L1.67087 2.17716L43.4283 1.99999L43.4198 9.0003e-06ZM0.666626 1.17717V32.3782H2.66663V1.17717H0.666626ZM1.66663 33.3782H43.4241V31.3782H1.66663V33.3782ZM42.4241 1V32.3782H44.4241V1H42.4241Z" fill="url(#paint0_linear_2571_9672)"/>
<defs>
<linearGradient id="paint0_linear_2571_9672" x1="8.47968" y1="-3.02588" x2="46.2659" y2="35.129" gradientUnits="userSpaceOnUse">
<stop stop-color="#232BBE"/>
<stop offset="1" stop-color="#ABCDFF"/>
</linearGradient>
</defs>
</svg>
