<svg xmlns="http://www.w3.org/2000/svg" width="45" height="36" viewBox="0 0 45 36">
<path d="M1.6665 1.17717L1.66226 0.177182C1.11164 0.179518 0.666504 0.626544 0.666504 1.17717H1.6665ZM22.4245 16.7777L21.8237 17.5771L22.4244 18.0285L23.0252 17.5772L22.4245 16.7777ZM43.4239 1H44.4239C44.4239 0.734048 44.318 0.479052 44.1295 0.291395C43.9411 0.103738 43.6856 -0.00111938 43.4197 9.0003e-06L43.4239 1ZM1.6665 32.3782H0.666504V33.3782H1.6665V32.3782ZM1.06571 1.97658L21.8237 17.5771L23.0253 15.9783L2.26729 0.377765L1.06571 1.97658ZM23.0252 17.5772L44.0246 1.79949L42.8232 0.200514L21.8238 15.9782L23.0252 17.5772ZM43.4197 9.0003e-06L1.66226 0.177182L1.67075 2.17716L43.4282 1.99999L43.4197 9.0003e-06ZM0.666504 1.17717V32.3782H2.6665V1.17717H0.666504ZM1.6665 33.3782H22.5452V31.3782H1.6665V33.3782ZM42.4239 1V18.1951H44.4239V1H42.4239ZM35 29.3782V21H33V29.3782H35ZM33 31V33H35V31H33ZM41 27C41 30.866 37.866 34 34 34V36C38.9706 36 43 31.9706 43 27H41ZM34 34C30.134 34 27 30.866 27 27H25C25 31.9706 29.0294 36 34 36V34ZM27 27C27 23.134 30.134 20 34 20V18C29.0294 18 25 22.0294 25 27H27ZM34 20C37.866 20 41 23.134 41 27H43C43 22.0294 38.9706 18 34 18V20Z" fill="red"/>
<defs>

</defs>
</svg>