<svg width="32" height="37" viewBox="0 0 32 37" fill="none" xmlns="http://www.w3.org/2000/svg">
<path d="M7.38462 5.32939L16.6154 10.6588V6.57389C23.8069 6.89561 29.5385 12.8278 29.5385 20.0986C29.5385 27.5757 23.4771 33.6371 16 33.6371C8.52291 33.6371 2.46154 27.5757 2.46154 20.0986H0C0 28.9352 7.16345 36.0986 16 36.0986C24.8366 36.0986 32 28.9352 32 20.0986C32 11.4681 25.1668 4.43362 16.6154 4.11023V0L7.38462 5.32939Z" fill="white"/>
<path d="M12.928 25.3663H10.9046V18.3066H8.61539V16.9774C9.856 16.9331 10.9637 16.4752 11.1705 15.1755H12.928V25.3663Z" fill="white"/>
<path d="M22.1824 21.9989C22.1824 24.1109 20.484 25.5878 18.2686 25.5878C16.0237 25.5878 14.3843 24.4063 14.1923 22.442H16.1713C16.3486 23.4315 17.1757 23.9042 18.2243 23.9042C19.3763 23.9042 20.1 23.0771 20.1 21.9989C20.1 20.8026 19.2877 20.138 18.2243 20.138C17.4563 20.138 16.8655 20.4334 16.5701 20.7731H14.6353L15.6101 15.2494H21.5769V16.9183H17.0132L16.6292 19.1042H16.6587C17.1018 18.7202 17.8255 18.4691 18.756 18.4691C20.543 18.4691 22.1824 19.8131 22.1824 21.9989Z" fill="white"/>
</svg>
