<svg width="14" height="14" viewBox="0 0 14 14" fill="none" xmlns="http://www.w3.org/2000/svg">
<path d="M11.9001 2.09961H12.2751V1.72461H11.9001V2.09961ZM11.9001 11.8996V12.2746H12.2751V11.8996H11.9001ZM2.1001 2.09961L2.1001 1.72461H1.7251L1.7251 2.09961L2.1001 2.09961ZM2.1001 11.8996H1.7251L1.7251 12.2746H2.1001V11.8996ZM9.4501 2.47461H11.9001V1.72461H9.4501V2.47461ZM11.5251 2.09961V4.54961H12.2751V2.09961H11.5251ZM9.4501 12.2746H11.9001V11.5246H9.4501V12.2746ZM12.2751 11.8996V9.44961H11.5251V11.8996H12.2751ZM2.4751 4.54961L2.4751 2.09961L1.7251 2.09961L1.7251 4.54961H2.4751ZM2.1001 2.47461L4.5501 2.47461V1.72461L2.1001 1.72461L2.1001 2.47461ZM1.7251 9.44961L1.7251 11.8996H2.4751L2.4751 9.44961H1.7251ZM2.1001 12.2746H4.5501V11.5246H2.1001V12.2746ZM8.0251 5.59961C8.0251 6.1657 7.56619 6.62461 7.0001 6.62461V7.37461C7.9804 7.37461 8.7751 6.57991 8.7751 5.59961H8.0251ZM7.0001 6.62461C6.43401 6.62461 5.9751 6.1657 5.9751 5.59961H5.2251C5.2251 6.57991 6.01979 7.37461 7.0001 7.37461V6.62461ZM5.9751 5.59961C5.9751 5.03352 6.43401 4.57461 7.0001 4.57461V3.82461C6.01979 3.82461 5.2251 4.6193 5.2251 5.59961H5.9751ZM7.0001 4.57461C7.56619 4.57461 8.0251 5.03352 8.0251 5.59961H8.7751C8.7751 4.6193 7.9804 3.82461 7.0001 3.82461V4.57461ZM4.5751 9.79961C4.5751 9.63157 4.72107 9.37849 5.1879 9.14507C5.63231 8.92287 6.27249 8.77461 7.0001 8.77461V8.02461C6.1813 8.02461 5.42149 8.18975 4.85249 8.47425C4.30593 8.74753 3.8251 9.19445 3.8251 9.79961H4.5751ZM7.0001 8.77461C7.7277 8.77461 8.36789 8.92287 8.81229 9.14507C9.27913 9.37849 9.4251 9.63157 9.4251 9.79961H10.1751C10.1751 9.19445 9.69427 8.74753 9.1477 8.47425C8.57871 8.18975 7.81889 8.02461 7.0001 8.02461V8.77461Z" fill="black"/>
</svg>
