<svg xmlns="http://www.w3.org/2000/svg" width="32" height="22" viewBox="0 0 32 22" fill="none">
<path d="M7.91598 3.04131L9.95057 1.00672C10.5754 0.381877 11.5885 0.381876 12.2133 1.00671L14.2479 3.04131M14.2479 18.8711L12.2133 20.9057C11.5885 21.5306 10.5754 21.5306 9.95057 20.9057L7.91598 18.8711M14.6439 18.4754L21.0317 12.0876C21.6566 11.4628 21.6566 10.4497 21.0317 9.82487L14.6439 3.43708M7.51914 3.43709L1.13135 9.82487C0.50651 10.4497 0.50651 11.4628 1.13135 12.0876L7.51913 18.4754M17.7521 3.04131L19.7867 1.00672C20.4115 0.381877 21.4246 0.381876 22.0494 1.00671L24.084 3.04131M24.084 18.871L22.0494 20.9056C21.4246 21.5305 20.4115 21.5305 19.7867 20.9056L17.7521 18.871M24.4809 18.4754L30.8686 12.0876C31.4935 11.4628 31.4935 10.4497 30.8686 9.82487L24.4809 3.43708" />
</svg>