<svg width="21" height="15" viewBox="0 0 21 15" fill="none" xmlns="http://www.w3.org/2000/svg">
<path d="M5.44747 3.02582L6.71909 1.7542C7.10962 1.36367 7.74278 1.36367 8.13331 1.7542L9.40492 3.02582M9.40493 12.9195L8.13331 14.1911C7.74278 14.5816 7.10962 14.5816 6.71909 14.1911L5.44747 12.9195M9.65245 12.6721L13.6448 8.67976C14.0353 8.28923 14.0353 7.65607 13.6448 7.26554L9.65244 3.27318M5.19945 3.27318L1.20708 7.26554C0.816554 7.65607 0.816553 8.28923 1.20708 8.67976L5.19944 12.6721M11.595 3.02582L12.8666 1.7542C13.2572 1.36367 13.8903 1.36367 14.2809 1.7542L15.5525 3.02582M15.5525 12.9194L14.2809 14.191C13.8903 14.5815 13.2572 14.5815 12.8666 14.191L11.595 12.9194M15.8005 12.6721L19.7929 8.67976C20.1834 8.28923 20.1834 7.65607 19.7929 7.26554L15.8005 3.27318" stroke="none"/>
</svg>
