<svg width="19" height="21" viewBox="0 0 19 21" fill="none" xmlns="http://www.w3.org/2000/svg">
<path d="M4.90739 12C3.86754 12.5043 2.99073 13.2913 2.37735 14.2708C1.76396 15.2503 1.4388 16.3827 1.43909 17.5384C1.43909 17.5384 3.90063 19.9999 9.43909 19.9999C14.9775 19.9999 17.4391 17.5384 17.4391 17.5384C17.4393 16.3826 17.1139 15.2501 16.5003 14.2705C15.8867 13.291 15.0096 12.5041 13.9695 12M13.7472 5.84602C13.7472 8.2251 11.8185 11.3845 9.43946 11.3845C7.06039 11.3845 5.13177 8.2251 5.13177 5.84602C5.13177 4.70355 5.58562 3.60787 6.39346 2.80002C7.20131 1.99217 8.29699 1.53833 9.43946 1.53833C10.5819 1.53833 11.6776 1.99217 12.4855 2.80002C13.2933 3.60787 13.7472 4.70355 13.7472 5.84602Z" stroke="#000" stroke-width="2" stroke-linecap="round" stroke-linejoin="round"/>
</svg>
