<svg xmlns="http://www.w3.org/2000/svg" width="22" height="22" viewBox="0 0 22 22" fill="none">
<path d="M9.02077 1.00012L8.68548 3.72561C7.39842 4.08618 6.25196 4.72492 5.31099 5.57999L2.98562 4.59945L1 8.17944L2.98562 9.39178C2.82879 9.99446 2.6936 10.6074 2.6936 11.2565C2.6936 11.9055 2.82879 12.5185 2.98562 13.1212L1.09621 14.7518L3.1758 17.9188L5.30558 16.9278C6.25195 17.7932 7.39842 18.4268 8.68548 18.7925L9.02077 21.5H12.9793L13.3146 18.7925C14.6017 18.4268 15.7481 17.788 16.6891 16.9278L18.8189 17.9188L21 14.7518L19.009 13.1212C19.1659 12.5185 19.3065 11.9055 19.3065 11.2565C19.3065 10.6074 19.1713 9.99446 19.0145 9.39178L21 8.17944L19.3065 4.59945L16.6945 5.57999C15.7481 4.71976 14.6017 4.08618 13.3146 3.72561L12.9793 1L9.02077 1.00012Z" stroke="black"/>
<path d="M15.6913 11.2563C15.6913 13.8053 13.5909 15.8717 11 15.8717C8.40903 15.8717 6.30867 13.8053 6.30867 11.2563C6.30867 8.70736 8.40903 6.64099 11 6.64099C13.5909 6.64099 15.6913 8.70736 15.6913 11.2563Z" stroke="black"/>
</svg>