<svg width="58" height="56" viewBox="0 0 58 56" fill="none" xmlns="http://www.w3.org/2000/svg">
<path d="M14.853 14.0723L18.4135 10.5118C19.507 9.41828 21.2799 9.41828 22.3733 10.5118L25.9339 14.0723M25.9339 41.7745L22.3733 45.335C21.2799 46.4285 19.507 46.4285 18.4135 45.335L14.853 41.7745M26.6269 41.0819L37.8055 29.9033C38.899 28.8099 38.899 27.037 37.8055 25.9435L26.6269 14.7649M14.1585 14.7649L2.97989 25.9435C1.88642 27.037 1.88642 28.8099 2.97989 29.9033L14.1585 41.0819M32.0661 14.0723L35.6267 10.5118C36.7201 9.41828 38.493 9.41828 39.5865 10.5118L43.147 14.0723M43.147 41.7743L39.5865 45.3348C38.493 46.4283 36.7201 46.4283 35.6267 45.3348L32.0661 41.7743M43.8415 41.0819L55.0201 29.9033C56.1136 28.8099 56.1136 27.037 55.0201 25.9435L43.8415 14.7649" stroke="url(#paint0_linear_3175_2760)" stroke-width="2.5"/>
<defs>
<linearGradient id="paint0_linear_3175_2760" x1="10.9182" y1="5.01332" x2="54.5626" y2="53.766" gradientUnits="userSpaceOnUse">
<stop stop-color="#232BBE"/>
<stop offset="1" stop-color="#ABCDFF"/>
</linearGradient>
</defs>
</svg>
