<svg width="50" height="50" viewBox="0 0 50 50" fill="none" xmlns="http://www.w3.org/2000/svg">
<path d="M17.5538 7.02037L23.16 1.41421C23.9411 0.633164 25.2074 0.633165 25.9884 1.41421L31.5946 7.02037" stroke="#232BBE" stroke-width="1.5"/>
<path d="M31.5946 42.1221L25.9884 47.7283C25.2074 48.5094 23.9411 48.5094 23.16 47.7283L17.5538 42.1221" stroke="#232BBE" stroke-width="1.5"/>
<path d="M32.4751 41.2446L47.7342 25.9855C48.5153 25.2044 48.5153 23.9381 47.7342 23.157L32.475 7.89787" stroke="#232BBE" stroke-width="1.5"/>
<path d="M16.6734 7.89787L1.41421 23.157C0.633166 23.9381 0.633165 25.2044 1.41421 25.9855L16.6734 41.2447" stroke="#232BBE" stroke-width="1.5"/>
<rect x="24.6953" y="3.40771" width="30.1063" height="30.1063" rx="2" transform="rotate(45 24.6953 3.40771)" fill="white"/>
<path d="M21.9708 24.9343C21.7797 24.1756 21.3183 23.5126 20.6732 23.0698C20.0281 22.6269 19.2437 22.4346 18.4669 22.529C17.6901 22.6233 16.9745 22.9978 16.4541 23.5822C15.9338 24.1666 15.6446 24.9207 15.6406 25.7032V28.4249H20.305C20.3364 27.7615 20.4999 27.111 20.786 26.5117C21.072 25.9123 21.4748 25.376 21.9708 24.9343ZM21.9708 24.9343C21.4742 25.3766 21.0711 25.9137 20.785 26.514C20.4989 27.1143 20.3357 27.7658 20.305 28.4301M27.668 24.9549C27.8524 24.1909 28.3107 23.5211 28.9559 23.0723C29.6011 22.6236 30.3885 22.427 31.1689 22.5199C31.9493 22.6127 32.6686 22.9886 33.1905 23.5762C33.7124 24.1638 34.0007 24.9225 34.0007 25.7084V28.4301H29.3082M27.668 24.9549C28.1568 25.3976 28.5534 25.9324 28.8349 26.5288C29.1164 27.1252 29.2772 27.7714 29.3082 28.4301M27.668 24.9549C26.8901 24.2494 25.8786 23.8567 24.8285 23.8529C23.7783 23.8491 22.764 24.2344 21.9811 24.9343M29.3082 28.4301C29.3236 28.5301 29.3236 28.6275 29.3236 28.73V31.5491H20.2998V28.73C20.2998 28.6275 20.3152 28.5301 20.3152 28.4301M24.813 17.8609C25.6076 17.8609 26.3696 18.1766 26.9315 18.7384C27.4933 19.3003 27.809 20.0623 27.809 20.8569C27.809 21.6515 27.4933 22.4135 26.9315 22.9753C26.3696 23.5372 25.6076 23.8529 24.813 23.8529C25.6069 23.8515 26.3679 23.5353 26.9291 22.9737C27.4902 22.4121 27.8057 21.6508 27.8064 20.8569C27.8057 20.063 27.4902 19.3017 26.9291 18.7401C26.3679 18.1784 25.6069 17.8623 24.813 17.8609ZM24.813 17.8609C25.4049 17.8609 25.9836 18.0364 26.4758 18.3652C26.968 18.694 27.3517 19.1614 27.5783 19.7082C27.805 20.255 27.8644 20.8568 27.7491 21.4374C27.6338 22.018 27.349 22.5513 26.9306 22.9701C26.5122 23.3888 25.9791 23.6741 25.3986 23.7899C24.8181 23.9057 24.2163 23.8468 23.6693 23.6206C23.1223 23.3944 22.6546 23.0112 22.3254 22.5192C21.9962 22.0273 21.8202 21.4488 21.8197 20.8569C21.8203 20.063 22.1358 19.3017 22.697 18.7401C23.2581 18.1784 24.0191 17.8623 24.813 17.8609ZM24.8104 23.8529C24.0159 23.8529 23.2538 23.5372 22.692 22.9753C22.1301 22.4135 21.8145 21.6515 21.8145 20.8569C21.8145 20.0623 22.1301 19.3003 22.692 18.7384C23.2538 18.1766 24.0159 17.8609 24.8104 17.8609M18.8646 22.4971C19.2526 22.4976 19.632 22.383 19.9548 22.1677C20.2776 21.9525 20.5293 21.6463 20.678 21.288C20.8267 20.9296 20.8658 20.5352 20.7902 20.1547C20.7147 19.7741 20.5279 19.4245 20.2535 19.1502C19.9792 18.8758 19.6296 18.6891 19.2491 18.6135C18.8685 18.5379 18.4741 18.577 18.1157 18.7257C17.7574 18.8744 17.4512 19.1261 17.236 19.4489C17.0207 19.7717 16.9061 20.1511 16.9066 20.5391C16.9066 21.0584 17.1129 21.5564 17.4801 21.9236C17.8473 22.2908 18.3453 22.4971 18.8646 22.4971ZM30.7896 22.4971C31.1775 22.4971 31.5567 22.382 31.8791 22.1665C32.2016 21.9509 32.4529 21.6446 32.6012 21.2862C32.7495 20.9278 32.7882 20.5335 32.7123 20.1531C32.6365 19.7727 32.4495 19.4234 32.1751 19.1493C31.9006 18.8752 31.551 18.6887 31.1705 18.6133C30.7901 18.5379 30.3958 18.5771 30.0376 18.7259C29.6794 18.8747 29.3733 19.1264 29.1582 19.4491C28.9431 19.7719 28.8285 20.1512 28.8291 20.5391C28.8291 20.7964 28.8798 21.0512 28.9783 21.289C29.0769 21.5267 29.2214 21.7427 29.4035 21.9245C29.5855 22.1064 29.8017 22.2505 30.0395 22.3488C30.2774 22.447 30.5323 22.4974 30.7896 22.4971Z" stroke="black" stroke-miterlimit="10"/>
</svg>
