<svg width="20" height="20" viewBox="0 0 20 20" fill="none" xmlns="http://www.w3.org/2000/svg">
<path d="M6.97084 9.93433C6.77971 9.17556 6.31834 8.5126 5.67324 8.06976C5.02815 7.62692 4.24365 7.43463 3.46689 7.52897C2.69014 7.62332 1.97448 7.9978 1.45415 8.58219C0.933816 9.16657 0.644558 9.92072 0.640625 10.7032V13.4249H5.30499C5.33639 12.7615 5.49991 12.111 5.78596 11.5117C6.07201 10.9123 6.47484 10.376 6.97084 9.93433ZM6.97084 9.93433C6.47424 10.3766 6.07105 10.9137 5.78498 11.514C5.4989 12.1143 5.33571 12.7658 5.30499 13.4301M12.668 9.95492C12.8524 9.19094 13.3107 8.52112 13.9559 8.07235C14.6011 7.62358 15.3885 7.42701 16.1689 7.51986C16.9493 7.61272 17.6686 7.98855 18.1905 8.57619C18.7124 9.16383 19.0007 9.92246 19.0007 10.7084V13.4301H14.3082M12.668 9.95492C13.1568 10.3976 13.5534 10.9324 13.8349 11.5288C14.1164 12.1252 14.2772 12.7714 14.3082 13.4301M12.668 9.95492C11.8901 9.24936 10.8786 8.85672 9.82849 8.85293C8.77834 8.84915 7.76398 9.23437 6.98108 9.9343M14.3082 13.4301C14.3236 13.5301 14.3236 13.6275 14.3236 13.73V16.5491H5.2998V13.73C5.2998 13.6275 5.31518 13.5301 5.31518 13.4301M9.813 2.86093C10.6076 2.86093 11.3696 3.17657 11.9315 3.73842C12.4933 4.30027 12.809 5.06231 12.809 5.85689C12.809 6.65147 12.4933 7.4135 11.9315 7.97535C11.3696 8.5372 10.6076 8.85285 9.813 8.85285C10.6069 8.8515 11.3679 8.53534 11.9291 7.97371C12.4902 7.41208 12.8057 6.65082 12.8064 5.85689C12.8057 5.06297 12.4902 4.30171 11.9291 3.74008C11.3679 3.17845 10.6069 2.86229 9.813 2.86093ZM9.813 2.86093C10.4049 2.86093 10.9836 3.03642 11.4758 3.36522C11.968 3.69403 12.3517 4.16139 12.5783 4.70821C12.805 5.25504 12.8644 5.85677 12.7491 6.43736C12.6338 7.01796 12.349 7.55134 11.9306 7.97008C11.5122 8.38881 10.9791 8.6741 10.3986 8.78989C9.81811 8.90568 9.21632 8.84677 8.6693 8.62059C8.12229 8.39442 7.65461 8.01116 7.32538 7.51923C6.99615 7.02731 6.82016 6.44882 6.81965 5.85689C6.82033 5.06297 7.13584 4.30171 7.69699 3.74008C8.25814 3.17845 9.01908 2.86229 9.813 2.86093ZM9.81043 8.85285C9.01585 8.85285 8.25382 8.5372 7.69197 7.97535C7.13012 7.4135 6.81447 6.65147 6.81447 5.85689C6.81447 5.06231 7.13012 4.30027 7.69197 3.73842C8.25382 3.17657 9.01585 2.86093 9.81043 2.86093M3.86464 7.49708C4.25262 7.49758 4.63202 7.38296 4.95483 7.16773C5.27764 6.95249 5.52933 6.64632 5.67804 6.28797C5.82675 5.92962 5.86579 5.53521 5.79022 5.15465C5.71465 4.7741 5.52788 4.42453 5.25353 4.15018C4.97918 3.87584 4.62961 3.68906 4.24906 3.61349C3.86851 3.53792 3.47409 3.57695 3.11574 3.72566C2.75738 3.87437 2.45121 4.12606 2.23597 4.44887C2.02074 4.77168 1.90612 5.1511 1.90663 5.53908C1.90663 6.05838 2.11292 6.5564 2.48011 6.9236C2.84731 7.2908 3.34534 7.49708 3.86464 7.49708ZM15.7896 7.49708C16.1775 7.49708 16.5567 7.38204 16.8791 7.16649C17.2016 6.95095 17.4529 6.6446 17.6012 6.2862C17.7495 5.92781 17.7882 5.53346 17.7123 5.15307C17.6365 4.77269 17.4495 4.42336 17.1751 4.14927C16.9006 3.87518 16.551 3.68866 16.1705 3.6133C15.7901 3.53794 15.3958 3.57713 15.0376 3.72591C14.6794 3.8747 14.3733 4.12638 14.1582 4.44914C13.9431 4.77189 13.8285 5.15121 13.8291 5.53908C13.8291 5.79642 13.8798 6.05123 13.9783 6.28896C14.0769 6.52668 14.2214 6.74265 14.4035 6.9245C14.5855 7.10636 14.8017 7.25052 15.0395 7.34877C15.2774 7.44702 15.5323 7.49741 15.7896 7.49708Z" stroke="none" stroke-miterlimit="10"/>
</svg>
