<svg width="50" height="50" viewBox="0 0 50 50" fill="none" xmlns="http://www.w3.org/2000/svg">
<path d="M17.5538 7.02037L23.16 1.41421C23.9411 0.633164 25.2074 0.633165 25.9884 1.41421L31.5946 7.02037" stroke="#232BBE" stroke-width="1.5"/>
<path d="M31.5946 42.1221L25.9884 47.7283C25.2074 48.5094 23.9411 48.5094 23.16 47.7283L17.5538 42.1221" stroke="#232BBE" stroke-width="1.5"/>
<path d="M32.4751 41.2446L47.7342 25.9855C48.5153 25.2044 48.5153 23.9381 47.7342 23.157L32.475 7.89787" stroke="#232BBE" stroke-width="1.5"/>
<path d="M16.6734 7.89787L1.41421 23.157C0.633166 23.9381 0.633165 25.2044 1.41421 25.9855L16.6734 41.2447" stroke="#232BBE" stroke-width="1.5"/>
<rect x="24.6953" y="3.40771" width="30.1063" height="30.1063" rx="2" transform="rotate(45 24.6953 3.40771)" fill="white"/>
<path d="M27.7202 17.1137C28.4333 16.4006 29.4004 16 30.4088 16C31.4172 16 32.3844 16.4006 33.0974 17.1137C33.8105 17.8267 34.2111 18.7938 34.2111 19.8023C34.2111 20.8107 33.8105 21.7778 33.0974 22.4909M18.5354 26.2986L17.9961 26.8379V32.2184H23.3733L23.9159 31.6758M27.723 17.1158L33.101 22.4938L23.5851 32.0098L18.2071 26.6318L27.723 17.1158Z" stroke="black" stroke-miterlimit="10"/>
</svg>
