<svg width="50" height="50" viewBox="0 0 50 50" fill="none" xmlns="http://www.w3.org/2000/svg">
<path d="M17.5538 7.02037L23.16 1.41421C23.9411 0.633164 25.2074 0.633165 25.9884 1.41421L31.5946 7.02037" stroke="#232BBE" stroke-width="1.5"/>
<path d="M31.5946 42.1221L25.9884 47.7283C25.2074 48.5094 23.9411 48.5094 23.16 47.7283L17.5538 42.1221" stroke="#232BBE" stroke-width="1.5"/>
<path d="M32.4751 41.2446L47.7342 25.9855C48.5153 25.2044 48.5153 23.9381 47.7342 23.157L32.475 7.89787" stroke="#232BBE" stroke-width="1.5"/>
<path d="M16.6734 7.89787L1.41421 23.157C0.633166 23.9381 0.633165 25.2044 1.41421 25.9855L16.6734 41.2447" stroke="#232BBE" stroke-width="1.5"/>
<rect x="24.6953" y="3.40771" width="30.1063" height="30.1063" rx="2" transform="rotate(45 24.6953 3.40771)" fill="white"/>
<path d="M31.1862 29.878C26.9239 29.878 23.4801 26.418 23.4801 22.1356C23.4801 19.8951 24.4399 17.8814 25.9359 16.4634C21.2502 16.4634 17.4395 20.2921 17.4395 25C17.4395 29.7079 21.2502 33.5366 25.9359 33.5366C28.928 33.5366 31.5249 32.0051 33.0492 29.6512C32.4564 29.793 31.8354 29.878 31.1862 29.878Z" stroke="black" stroke-miterlimit="10"/>
</svg>
