<svg width="50" height="50" viewBox="0 0 50 50" fill="none" xmlns="http://www.w3.org/2000/svg">
<path d="M17.9913 7.02037L23.5975 1.41421C24.3786 0.633164 25.6449 0.633165 26.4259 1.41421L32.0321 7.02037" stroke="#232BBE" stroke-width="1.5"/>
<path d="M32.0321 42.1221L26.4259 47.7283C25.6449 48.5094 24.3786 48.5094 23.5975 47.7283L17.9913 42.1221" stroke="#232BBE" stroke-width="1.5"/>
<path d="M32.9126 41.2446L48.1717 25.9855C48.9528 25.2044 48.9528 23.9381 48.1717 23.157L32.9125 7.89787" stroke="#232BBE" stroke-width="1.5"/>
<path d="M17.1128 7.89787L1.85367 23.157C1.07262 23.9381 1.07262 25.2044 1.85367 25.9855L17.1128 41.2447" stroke="#232BBE" stroke-width="1.5"/>
<rect x="25.1328" y="3.40771" width="30.1063" height="30.1063" rx="2" transform="rotate(45 25.1328 3.40771)" fill="#232BBE"/>
<path d="M20 24V34M20 24C19.2044 24 18.4413 23.7175 17.8787 23.2147C17.3161 22.7118 17 22.0298 17 21.3187V16M20 24V16M20 24H20.0414C20.8261 24 21.5786 23.7175 22.1335 23.2147C22.6883 22.7118 23 22.0298 23 21.3187V16M28.0327 16C28.0327 16 27 21.5542 27 22.9021C27 24.389 28.6682 25 30 25M30 25C31.3294 25 33 24.389 33 22.9021C33 21.5542 31.9696 16 31.9696 16M30 25V33M33 33H27" stroke="white" stroke-miterlimit="10"/>
</svg>
