<svg width="32" height="32" viewBox="0 0 32 32" fill="none" xmlns="http://www.w3.org/2000/svg">
<path d="M11.429 4.57101L14.5858 1.41421C15.3668 0.633166 16.6332 0.633165 17.4142 1.41421L20.571 4.57101" stroke="#232BBE" stroke-width="1.5"/>
<path d="M20.571 27.426L17.4142 30.5828C16.6332 31.3639 15.3668 31.3639 14.5858 30.5828L11.429 27.426" stroke="#232BBE" stroke-width="1.5"/>
<path d="M21.1438 26.8547L30.5858 17.4127C31.3668 16.6317 31.3668 15.3654 30.5858 14.5843L21.1438 5.14236" stroke="#232BBE" stroke-width="1.5"/>
<path d="M10.8562 5.14236L1.41421 14.5843C0.633164 15.3654 0.633165 16.6317 1.41421 17.4127L10.8562 26.8547" stroke="#232BBE" stroke-width="1.5"/>
<rect x="15.9912" y="1.95332" width="19.6024" height="19.6024" rx="2" transform="rotate(45 15.9912 1.95332)" fill="white"/>
<path d="M12.7355 15.6266V22.1376M12.7355 15.6266C12.2175 15.6266 11.7207 15.4426 11.3543 15.1152C10.988 14.7878 10.7822 14.3438 10.7822 13.8808V10.4177M12.7355 15.6266V10.4177M12.7355 15.6266H12.7625C13.2734 15.6266 13.7634 15.4426 14.1247 15.1152C14.4859 14.7878 14.6889 14.3438 14.6889 13.8808V10.4177M17.9657 10.4177C17.9657 10.4177 17.2933 14.0341 17.2933 14.9117C17.2933 15.8798 18.3795 16.2777 19.2466 16.2777M19.2466 16.2777C20.1122 16.2777 21.1999 15.8798 21.1999 14.9117C21.1999 14.0341 20.5291 10.4177 20.5291 10.4177M19.2466 16.2777V21.4865M21.1999 21.4865H17.2933" stroke="black" stroke-width="0.75" stroke-miterlimit="10"/>
</svg>
