<svg width="50" height="50" viewBox="0 0 50 50" fill="none" xmlns="http://www.w3.org/2000/svg">
<path d="M17.5538 7.30553L23.16 1.69937C23.9411 0.918321 25.2074 0.918321 25.9884 1.69937L31.5946 7.30553" stroke="#232BBE" stroke-width="1.5"/>
<path d="M31.5946 42.4073L25.9884 48.0135C25.2074 48.7945 23.9411 48.7945 23.16 48.0135L17.5538 42.4073" stroke="#232BBE" stroke-width="1.5"/>
<path d="M32.4751 41.5298L47.7342 26.2706C48.5153 25.4896 48.5153 24.2232 47.7342 23.4422L32.475 8.18303" stroke="#232BBE" stroke-width="1.5"/>
<path d="M16.6734 8.18303L1.41421 23.4422C0.633166 24.2232 0.633165 25.4896 1.41421 26.2706L16.6734 41.5298" stroke="#232BBE" stroke-width="1.5"/>
<rect x="24.6953" y="3.69287" width="30.1063" height="30.1063" rx="2" transform="rotate(45 24.6953 3.69287)" fill="#232BBE"/>
<path d="M30.6101 23V25.4295C30.6101 28.1448 28.1096 30.3171 24.9839 30.3171C21.8912 30.3171 19.3906 28.1448 19.3906 25.4295V23M21.8297 34.0244H28.659M25.2444 34.0244V30.1219M25.0005 15.4878C22.7128 15.4878 20.8541 17.1915 20.8541 19.2883V24.858C20.8541 26.9548 22.7128 28.6585 25.0005 28.6585C27.2881 28.6585 29.1468 26.9548 29.1468 24.858V19.2883C29.1468 17.1915 27.2881 15.4878 25.0005 15.4878Z" stroke="white" stroke-miterlimit="10"/>
</svg>
