<svg width="20" height="20" viewBox="0 0 20 20" fill="none" xmlns="http://www.w3.org/2000/svg">
<path d="M11.2199 17.561C11.2199 18.3819 10.6845 19.0244 10.0004 19.0244C9.31626 19.0244 8.78087 18.3819 8.78087 17.561M7.80526 15.6098H12.1955M7.80526 17.561H12.1955M7.80526 14.1463H12.1955M11.8703 17.561H12.3086V14.9438C12.3086 13.2088 13.0682 12.209 13.8571 11.1209C14.7044 10.0035 15.5809 8.8272 15.6101 6.76873C15.6101 6.73932 15.6101 6.70992 15.6101 6.70992C15.6101 6.68051 15.6101 6.65111 15.6101 6.6217C15.6101 3.50459 13.0974 0.975616 10.0004 0.975616C6.90333 0.975616 4.39062 3.50459 4.39062 6.6217C4.39062 6.68051 4.39062 6.70992 4.39062 6.76873C4.41984 8.8272 5.29637 9.97406 6.14367 11.1209C6.93255 12.1796 7.6922 13.2088 7.6922 14.9144V17.5022H11.8703V17.561Z" stroke="none" stroke-miterlimit="10"/>
</svg>
