<svg  width="50" height="50" viewBox="0 0 50 50" fill="none" xmlns="http://www.w3.org/2000/svg">
<path d="M17.5538 7.02037L23.16 1.41421C23.9411 0.633164 25.2074 0.633165 25.9884 1.41421L31.5946 7.02037" stroke="#232BBE" stroke-width="1.5"/>
<path d="M31.5946 42.1221L25.9884 47.7283C25.2074 48.5094 23.9411 48.5094 23.16 47.7283L17.5538 42.1221" stroke="#232BBE" stroke-width="1.5"/>
<path d="M32.4751 41.2446L47.7342 25.9855C48.5153 25.2044 48.5153 23.9381 47.7342 23.157L32.475 7.89787" stroke="#232BBE" stroke-width="1.5"/>
<path d="M16.6734 7.89787L1.41421 23.157C0.633166 23.9381 0.633165 25.2044 1.41421 25.9855L16.6734 41.2447" stroke="#232BBE" stroke-width="1.5"/>
<rect x="24.6953" y="3.40771" width="30.1063" height="30.1063" rx="2" transform="rotate(45 24.6953 3.40771)" fill="white"/>
<path d="M26.2199 32.561C26.2199 33.3819 25.6845 34.0244 25.0004 34.0244C24.3163 34.0244 23.7809 33.3819 23.7809 32.561M22.8053 30.6098H27.1955M22.8053 32.561H27.1955M22.8053 29.1463H27.1955M26.8703 32.561H27.3086V29.9438C27.3086 28.2088 28.0682 27.209 28.8571 26.1209C29.7044 25.0035 30.5809 23.8272 30.6101 21.7687C30.6101 21.7393 30.6101 21.7099 30.6101 21.7099C30.6101 21.6805 30.6101 21.6511 30.6101 21.6217C30.6101 18.5046 28.0974 15.9756 25.0004 15.9756C21.9033 15.9756 19.3906 18.5046 19.3906 21.6217C19.3906 21.6805 19.3906 21.7099 19.3906 21.7687C19.4198 23.8272 20.2964 24.9741 21.1437 26.1209C21.9325 27.1796 22.6922 28.2088 22.6922 29.9144V32.5022H26.8703V32.561Z" stroke="black" stroke-miterlimit="10"/>
</svg>
