<svg width="50" height="50" viewBox="0 0 50 50" fill="none" xmlns="http://www.w3.org/2000/svg">
<path d="M17.5538 7.02037L23.16 1.41421C23.9411 0.633164 25.2074 0.633165 25.9884 1.41421L31.5946 7.02037" stroke="#232BBE" stroke-width="1.5"/>
<path d="M31.5946 42.1221L25.9884 47.7283C25.2074 48.5094 23.9411 48.5094 23.16 47.7283L17.5538 42.1221" stroke="#232BBE" stroke-width="1.5"/>
<path d="M32.4751 41.2446L47.7342 25.9855C48.5153 25.2044 48.5153 23.9381 47.7342 23.157L32.475 7.89787" stroke="#232BBE" stroke-width="1.5"/>
<path d="M16.6734 7.89787L1.41421 23.157C0.633166 23.9381 0.633165 25.2044 1.41421 25.9855L16.6734 41.2447" stroke="#232BBE" stroke-width="1.5"/>
<rect x="24.6953" y="3.40771" width="30.1063" height="30.1063" rx="2" transform="rotate(45 24.6953 3.40771)" fill="#232BBE"/>
<path d="M24.8891 30.8879L20.7622 26.7639M24.9095 19.9453V34.5521M24.9095 28.6913L28.5473 25.0535M24.9095 23.633L27.7799 20.7626M24.9096 26.4242L21.5383 23.053M31.0341 25.32C31.0341 30.4673 28.2921 34.64 24.9096 34.64C21.5272 34.64 18.7852 30.4673 18.7852 25.32C18.7852 20.1727 21.5272 16 24.9096 16C28.2921 16 31.0341 20.1727 31.0341 25.32Z" stroke="white" stroke-miterlimit="10"/>
</svg>
