<svg width="51" height="50" viewBox="0 0 51 50" fill="none" xmlns="http://www.w3.org/2000/svg">
<path d="M18.4328 7.30553L24.0389 1.69937C24.82 0.918321 26.0863 0.918321 26.8673 1.69937L32.4735 7.30553" stroke="#232BBE" stroke-width="1.5"/>
<path d="M32.4735 42.4073L26.8673 48.0135C26.0863 48.7945 24.82 48.7945 24.0389 48.0135L18.4328 42.4073" stroke="#232BBE" stroke-width="1.5"/>
<path d="M33.354 41.5298L48.6131 26.2706C49.3942 25.4896 49.3942 24.2232 48.6131 23.4422L33.354 8.18303" stroke="#232BBE" stroke-width="1.5"/>
<path d="M17.5523 8.18303L2.29312 23.4422C1.51207 24.2232 1.51207 25.4896 2.29312 26.2706L17.5523 41.5298" stroke="#232BBE" stroke-width="1.5"/>
<rect x="25.5742" y="3.69287" width="30.1063" height="30.1063" rx="2" transform="rotate(45 25.5742 3.69287)" fill="#232BBE"/>
<path d="M23.7812 22.0371V15.9756H26.7081V22.0371L26.0261 28.6585H24.5485L23.7812 22.0371Z" stroke="white" stroke-miterlimit="10"/>
<path d="M25.2447 30.6098C26.0429 30.6098 26.7081 31.2675 26.7081 32.0567V32.0896C26.7081 32.8789 26.0429 33.5366 25.2447 33.5366C24.4464 33.5366 23.7812 32.8789 23.7812 32.0896V32.0567C23.7812 31.2346 24.4464 30.6098 25.2447 30.6098Z" stroke="white" stroke-miterlimit="10"/>
</svg>
