<svg width="50" height="50" viewBox="0 0 50 50" fill="none" xmlns="http://www.w3.org/2000/svg">
<path d="M18.1398 7.02037L23.7459 1.41421C24.527 0.633164 25.7933 0.633165 26.5744 1.41421L32.1805 7.02037" stroke="#232BBE" stroke-width="1.5"/>
<path d="M32.1805 42.1221L26.5744 47.7283C25.7933 48.5094 24.527 48.5094 23.7459 47.7283L18.1398 42.1221" stroke="#232BBE" stroke-width="1.5"/>
<path d="M33.061 41.2446L48.3202 25.9855C49.1012 25.2044 49.1012 23.9381 48.3202 23.157L33.061 7.89787" stroke="#232BBE" stroke-width="1.5"/>
<path d="M17.2593 7.89787L2.00015 23.157C1.2191 23.9381 1.2191 25.2044 2.00015 25.9855L17.2593 41.2447" stroke="#232BBE" stroke-width="1.5"/>
<rect x="25.2812" y="3.40771" width="30.1063" height="30.1063" rx="2" transform="rotate(45 25.2812 3.40771)" fill="#232BBE"/>
<path d="M25.5 33C25.5 33 20 25.7587 20 22.6705C20 19.5291 22.4789 17 25.5 17C28.5469 17 30.9999 19.5291 30.9999 22.6705C31.0257 25.0932 25.5 33 25.5 33Z" stroke="white" stroke-miterlimit="10"/>
<path d="M28 22.5C28 23.8918 26.866 25 25.5 25C24.1082 25 23 23.866 23 22.5C23 21.1082 24.134 20 25.5 20C26.866 20 28 21.134 28 22.5Z" stroke="white" stroke-miterlimit="10"/>
</svg>
