<svg width="50" height="50" viewBox="0 0 50 50" fill="none" xmlns="http://www.w3.org/2000/svg">
<path d="M17.5538 7.02037L23.16 1.41421C23.9411 0.633164 25.2074 0.633165 25.9884 1.41421L31.5946 7.02037" stroke="#232BBE" stroke-width="1.5"/>
<path d="M31.5946 42.1221L25.9884 47.7283C25.2074 48.5094 23.9411 48.5094 23.16 47.7283L17.5538 42.1221" stroke="#232BBE" stroke-width="1.5"/>
<path d="M32.4751 41.2446L47.7342 25.9855C48.5153 25.2044 48.5153 23.9381 47.7342 23.157L32.475 7.89787" stroke="#232BBE" stroke-width="1.5"/>
<path d="M16.6734 7.89787L1.41421 23.157C0.633166 23.9381 0.633165 25.2044 1.41421 25.9855L16.6734 41.2447" stroke="#232BBE" stroke-width="1.5"/>
<rect x="24.6953" y="3.40771" width="30.1063" height="30.1063" rx="2" transform="rotate(45 24.6953 3.40771)" fill="#232BBE"/>
<path d="M21.8536 18.403C21.8536 17.5005 22.2122 16.6349 22.8504 15.9967C23.4885 15.3585 24.3541 15 25.2566 15C26.1592 15 27.0247 15.3585 27.6629 15.9967C28.3011 16.6349 28.6596 17.5005 28.6596 18.403M21.8536 18.406V25.883M28.6595 18.406V25.883M33.682 32H16.8281L17.4872 21.3496H33.0229L33.682 32Z" stroke="white" stroke-miterlimit="10"/>
</svg>
