<svg width="50" height="50" viewBox="0 0 50 50" fill="none" xmlns="http://www.w3.org/2000/svg">
<path d="M18.2843 7.02037L23.8905 1.41421C24.6715 0.633164 25.9379 0.633165 26.7189 1.41421L32.3251 7.02037" stroke="#232BBE" stroke-width="1.5"/>
<path d="M32.3251 42.1221L26.7189 47.7283C25.9379 48.5094 24.6715 48.5094 23.8905 47.7283L18.2843 42.1221" stroke="#232BBE" stroke-width="1.5"/>
<path d="M33.2055 41.2446L48.4647 25.9855C49.2457 25.2044 49.2457 23.9381 48.4647 23.157L33.2055 7.89787" stroke="#232BBE" stroke-width="1.5"/>
<path d="M17.4058 7.89787L2.14664 23.157C1.36559 23.9381 1.36559 25.2044 2.14664 25.9855L17.4058 41.2447" stroke="#232BBE" stroke-width="1.5"/>
<rect x="25.4258" y="3.40771" width="30.1063" height="30.1063" rx="2" transform="rotate(45 25.4258 3.40771)" fill="white"/>
<path d="M31.9118 32.0732H20.1191M25.7566 21.439C25.7566 21.1197 26.053 20.8536 26.4088 20.8536H30.4702C30.826 20.8536 31.1224 21.1197 31.1224 21.439V23.1951C31.1224 23.5144 30.826 23.7805 30.4702 23.7805H26.4088C26.053 23.7805 25.7566 23.5144 25.7566 23.1951M25.7566 21.439V23.1951M25.7566 21.439C25.7566 21.1197 25.4601 20.8536 25.1044 20.8536H21.0429C20.6872 20.8536 20.3907 21.1197 20.3907 21.439V23.1951C20.3907 23.5144 20.6872 23.7805 21.0429 23.7805H25.1044C25.4601 23.7805 25.7566 23.5144 25.7566 23.1951M17.9517 23.7805H34.0493M16.4883 29.6341L35.5127 29.6341M16.4883 32.0732H35.0249M18.0786 32.0732H16.8484V29.7654H16.4883V25.5095C16.4883 24.8202 16.9984 24.1908 17.6886 24.0709L18.0786 23.981V17.9268H33.9223V23.951L34.3124 24.0409C35.0026 24.1908 35.5127 24.7902 35.5127 25.4795V29.7654H35.1526V32.0432H33.9223L18.0786 32.0732Z" stroke="black" stroke-miterlimit="10"/>
</svg>
