<svg width="16" height="14" viewBox="0 0 16 14" fill="none" xmlns="http://www.w3.org/2000/svg">
<path d="M12.1383 11.9512H3.88338M7.8296 4.50732C7.8296 4.28382 8.03712 4.09756 8.28614 4.09756H11.1292C11.3782 4.09756 11.5857 4.28382 11.5857 4.50732V5.73659C11.5857 5.96009 11.3782 6.14634 11.1292 6.14634H8.28614C8.03712 6.14634 7.8296 5.96009 7.8296 5.73659M7.8296 4.50732V5.73659M7.8296 4.50732C7.8296 4.28382 7.62208 4.09756 7.37306 4.09756H4.53005C4.28102 4.09756 4.0735 4.28382 4.0735 4.50732V5.73659C4.0735 5.96009 4.28102 6.14634 4.53005 6.14634H7.37306C7.62208 6.14634 7.8296 5.96009 7.8296 5.73659M2.36619 6.14634H13.6345M1.3418 10.2439L14.6589 10.2439M1.3418 11.9512H14.3174M2.45505 11.9512H1.59386V10.3358H1.3418V7.35666C1.3418 6.87412 1.69888 6.43355 2.18199 6.34963L2.45505 6.28669V2.04878H13.5456V6.26571L13.8187 6.32865C14.3018 6.43355 14.6589 6.85314 14.6589 7.33568V10.3358H14.4068V11.9302H13.5456L2.45505 11.9512Z" stroke="none" stroke-width="0.75" stroke-miterlimit="10"/>
</svg>
