<svg width="50" height="50" viewBox="0 0 50 50" fill="none" xmlns="http://www.w3.org/2000/svg">
<path d="M18.2843 7.02037L23.8905 1.41421C24.6715 0.633164 25.9379 0.633165 26.7189 1.41421L32.3251 7.02037" stroke="#232BBE" stroke-width="1.5"/>
<path d="M32.3251 42.1221L26.7189 47.7283C25.9379 48.5094 24.6715 48.5094 23.8905 47.7283L18.2843 42.1221" stroke="#232BBE" stroke-width="1.5"/>
<path d="M33.2055 41.2446L48.4647 25.9855C49.2457 25.2044 49.2457 23.9381 48.4647 23.157L33.2055 7.89787" stroke="#232BBE" stroke-width="1.5"/>
<path d="M17.4058 7.89787L2.14664 23.157C1.36559 23.9381 1.36559 25.2044 2.14664 25.9855L17.4058 41.2447" stroke="#232BBE" stroke-width="1.5"/>
<rect x="25.4258" y="3.40771" width="30.1063" height="30.1063" rx="2" transform="rotate(45 25.4258 3.40771)" fill="#232BBE"/>
<path d="M30.9118 32.0732H19.1191M24.7566 21.439C24.7566 21.1197 25.053 20.8536 25.4088 20.8536H29.4702C29.826 20.8536 30.1224 21.1197 30.1224 21.439V23.1951C30.1224 23.5144 29.826 23.7805 29.4702 23.7805H25.4088C25.053 23.7805 24.7566 23.5144 24.7566 23.1951M24.7566 21.439V23.1951M24.7566 21.439C24.7566 21.1197 24.4601 20.8536 24.1044 20.8536H20.0429C19.6872 20.8536 19.3907 21.1197 19.3907 21.439V23.1951C19.3907 23.5144 19.6872 23.7805 20.0429 23.7805H24.1044C24.4601 23.7805 24.7566 23.5144 24.7566 23.1951M16.9517 23.7805H33.0493M15.4883 29.6341L34.5127 29.6341M15.4883 32.0732H34.0249M17.0786 32.0732H15.8484V29.7654H15.4883V25.5095C15.4883 24.8202 15.9984 24.1908 16.6886 24.0709L17.0786 23.981V17.9268H32.9223V23.951L33.3124 24.0409C34.0026 24.1908 34.5127 24.7902 34.5127 25.4795V29.7654H34.1526V32.0432H32.9223L17.0786 32.0732Z" stroke="white" stroke-miterlimit="10"/>
</svg>
