<svg width="50" height="50" viewBox="0 0 50 50" fill="none" xmlns="http://www.w3.org/2000/svg">
<path d="M17.5538 7.02037L23.16 1.41421C23.9411 0.633164 25.2074 0.633165 25.9884 1.41421L31.5946 7.02037" stroke="#232BBE" stroke-width="1.5"/>
<path d="M31.5946 42.1221L25.9884 47.7283C25.2074 48.5094 23.9411 48.5094 23.16 47.7283L17.5538 42.1221" stroke="#232BBE" stroke-width="1.5"/>
<path d="M32.4751 41.2446L47.7342 25.9855C48.5153 25.2044 48.5153 23.9381 47.7342 23.157L32.475 7.89787" stroke="#232BBE" stroke-width="1.5"/>
<path d="M16.6734 7.89787L1.41421 23.157C0.633166 23.9381 0.633165 25.2044 1.41421 25.9855L16.6734 41.2447" stroke="#232BBE" stroke-width="1.5"/>
<rect x="24.6953" y="3.40771" width="30.1063" height="30.1063" rx="2" transform="rotate(45 24.6953 3.40771)" fill="white"/>
<path d="M24.7558 16.4634V33.0488M33.5363 24.7561H16.9509M26.9099 16.9102C31.3778 17.9652 34.1444 22.4424 33.0894 26.9102C32.0345 31.3781 27.5573 34.1448 23.0894 33.0898C18.6216 32.0348 15.8549 27.5576 16.9099 23.0898C17.9649 18.6219 22.442 15.8553 26.9099 16.9102ZM29.6338 25C29.6338 29.4452 27.559 33.0488 24.9997 33.0488C22.4403 33.0488 20.3655 29.4452 20.3655 25C20.3655 20.5548 22.4403 16.9512 24.9997 16.9512C27.559 16.9512 29.6338 20.5548 29.6338 25Z" stroke="black" stroke-miterlimit="10"/>
</svg>
