<svg width="14" height="14" viewBox="0 0 14 14" fill="none" xmlns="http://www.w3.org/2000/svg">
<path d="M6.82884 1.02438V12.6341M12.9752 6.82926H1.36543M8.33673 1.33716C11.4642 2.07565 13.4009 5.20966 12.6624 8.33716C11.9239 11.4647 8.78992 13.4013 5.66242 12.6628C2.53492 11.9244 0.59824 8.79035 1.33673 5.66285C2.07522 2.53535 5.20923 0.598672 8.33673 1.33716ZM10.2435 6.99999C10.2435 10.1116 8.79113 12.6341 6.99957 12.6341C5.20801 12.6341 3.75567 10.1116 3.75567 6.99999C3.75567 3.88834 5.20801 1.36585 6.99957 1.36585C8.79113 1.36585 10.2435 3.88834 10.2435 6.99999Z" stroke="none" stroke-width="0.75" stroke-miterlimit="10"/>
</svg>
