<svg width="50" height="50" viewBox="0 0 50 50" fill="none" xmlns="http://www.w3.org/2000/svg">
<path d="M17.5538 7.02037L23.16 1.41421C23.9411 0.633164 25.2074 0.633165 25.9884 1.41421L31.5946 7.02037" stroke="#232BBE" stroke-width="1.5"/>
<path d="M31.5946 42.1221L25.9884 47.7283C25.2074 48.5094 23.9411 48.5094 23.16 47.7283L17.5538 42.1221" stroke="#232BBE" stroke-width="1.5"/>
<path d="M32.4751 41.2446L47.7342 25.9855C48.5153 25.2044 48.5153 23.9381 47.7342 23.157L32.475 7.89787" stroke="#232BBE" stroke-width="1.5"/>
<path d="M16.6734 7.89787L1.41421 23.157C0.633166 23.9381 0.633165 25.2044 1.41421 25.9855L16.6734 41.2447" stroke="#232BBE" stroke-width="1.5"/>
<rect x="24.6953" y="3.40771" width="30.1063" height="30.1063" rx="2" transform="rotate(45 24.6953 3.40771)" fill="white"/>
<path d="M21.3483 23.3543C21.3483 22.691 21.4337 22.0595 21.6054 21.46C21.8936 20.4521 22.4283 19.5355 23.2218 18.7172C23.7742 18.1469 24.3462 17.5942 24.944 17C26.2927 18.3169 27.7418 19.5019 28.2756 21.3926C28.2863 21.4298 28.2961 21.467 28.3058 21.5033C28.4758 22.1392 28.5665 22.7715 28.5647 23.3959M25.0295 31.5932C24.8836 29.1498 24.8969 26.7931 26.6797 24.8652C27.9883 23.4499 29.5985 22.6919 31.5369 22.6573C32.3331 22.6431 33.1293 22.6547 33.9744 22.6547C33.9931 24.5357 34.1755 26.3928 33.2094 28.1056C32.3963 29.5483 31.2487 30.6234 29.6732 31.1601C28.9713 31.3992 28.2107 31.5126 27.4679 31.5763C26.6646 31.6463 25.8497 31.5932 25.0295 31.5932ZM24.9832 31.5692C22.5288 31.7145 20.1615 31.7012 18.2249 29.9264C16.8042 28.6246 16.0418 27.0207 16.0071 25.091C15.9929 24.2983 16.0044 23.5057 16.0044 22.6644C17.8939 22.6458 19.7594 22.4642 21.4799 23.426C22.9291 24.2355 24.009 25.3779 24.5481 26.9463C24.7883 27.6451 24.9022 28.4023 24.9663 29.1418C25.0365 29.9415 24.9832 30.7527 24.9832 31.5692Z" stroke="black" stroke-miterlimit="10"/>
</svg>
