<svg width="14" height="12" viewBox="0 0 14 12" fill="none" xmlns="http://www.w3.org/2000/svg">
<path d="M4.44399 5.548C4.44399 5.08367 4.50377 4.64166 4.62396 4.22197C4.82572 3.51649 5.19997 2.87486 5.75544 2.30205C6.14215 1.90281 6.54256 1.51598 6.96102 1.10001C7.90507 2.02184 8.91948 2.85131 9.29311 4.17486C9.30058 4.20089 9.30743 4.22693 9.31428 4.25235C9.43322 4.69746 9.49674 5.14009 9.49549 5.57714M7.02084 11.3152C6.91871 9.60483 6.92805 7.9552 8.17598 6.60561C9.092 5.61496 10.2191 5.0843 11.576 5.06013C12.1334 5.05021 12.6907 5.05827 13.2823 5.05827C13.2954 6.375 13.423 7.67499 12.7467 8.87393C12.1776 9.8838 11.3743 10.6364 10.2714 11.0121C9.78011 11.1795 9.24768 11.2588 8.72771 11.3034C8.1654 11.3524 7.59499 11.3152 7.02084 11.3152ZM6.98841 11.2985C5.27032 11.4001 3.61327 11.3908 2.25761 10.1485C1.26312 9.23719 0.729452 8.1145 0.705166 6.76368C0.695202 6.20884 0.703298 5.654 0.703298 5.06507C2.02595 5.05205 3.3318 4.92496 4.53614 5.59821C5.55055 6.16482 6.30653 6.96453 6.6839 8.06243C6.85203 8.55155 6.93174 9.08159 6.97658 9.59923C7.02577 10.159 6.98841 10.7269 6.98841 11.2985Z" stroke="none" stroke-width="0.75" stroke-miterlimit="10"/>
</svg>
